<?xml version="1.0" encoding="utf-8"?>
<!-- Generator: Adobe Illustrator 27.8.0, SVG Export Plug-In . SVG Version: 6.00 Build 0)  -->
<svg version="1.1" baseProfile="tiny" xmlns="http://www.w3.org/2000/svg" xmlns:xlink="http://www.w3.org/1999/xlink" x="0px"
	 y="0px" viewBox="0 0 320.906 155.32" overflow="visible" xml:space="preserve">
<g id="Ebene_1">
	<g>
		<g>
			<g>
				<path fill="#9D98CB" d="M0.512,87.69c0-5.766,0.873-11.558,2.619-17.377c1.746-5.819,4.132-11.372,7.162-16.657
					c3.029-5.285,6.476-9.982,10.342-14.094c3.867-4.111,7.937-7.358,12.213-9.743c4.276-2.385,8.499-3.577,12.667-3.577
					c3.083,0,5.577,0.716,7.485,2.146c1.908,1.431,2.862,3.881,2.862,7.35c0,2.098-0.374,4.481-1.121,7.148
					c-0.748,2.667-1.75,5.218-3.007,7.654c-1.258,2.436-2.652,4.455-4.184,6.054c-1.531,1.601-3.081,2.4-4.647,2.4
					c-0.569,0-1.174-0.186-1.813-0.56s-1.172-1.022-1.599-1.947c1.101-1.244,2.327-2.801,3.678-4.667
					c1.351-1.867,2.639-3.832,3.865-5.894c1.226-2.062,2.222-4.099,2.986-6.108c0.764-2.009,1.146-3.778,1.146-5.307
					c0-1.458-0.418-2.64-1.253-3.547c-0.835-0.906-2.195-1.36-4.078-1.36c-3.127,0-6.388,1.271-9.782,3.813
					c-3.394,2.543-6.673,5.948-9.835,10.215c-3.164,4.268-6.016,9.023-8.556,14.269c-2.541,5.245-4.558,10.597-6.05,16.055
					c-1.493,5.459-2.238,10.66-2.238,15.603c0,3.556,0.506,6.96,1.519,10.214c1.012,3.254,2.666,5.885,4.958,7.895
					c2.292,2.008,5.268,3.013,8.929,3.013c3.905,0,7.775-1.094,11.61-3.28c3.833-2.188,7.363-5.067,10.588-8.641
					c3.225-3.574,5.806-7.441,7.74-11.602l1.495,1.12c-2.429,4.73-5.362,9.078-8.799,13.042s-7.278,7.13-11.521,9.496
					c-4.243,2.365-8.818,3.547-13.724,3.547c-5.181,0-9.371-1.289-12.569-3.867c-3.198-2.579-5.512-5.913-6.941-10.002
					C1.226,96.403,0.512,92.136,0.512,87.69z"/>
				<path fill="#9D98CB" d="M51.005,98.419c0-2.251,0.356-4.583,1.067-6.995c0.711-2.412,1.672-4.681,2.882-6.808
					c1.209-2.126,2.562-3.85,4.057-5.172c1.494-1.322,3.006-1.983,4.537-1.983c0.355,0,0.738,0.054,1.147,0.161
					c0.409,0.107,0.792,0.232,1.147,0.375c-0.64,0.572-1.423,1.652-2.348,3.241c-0.926,1.589-1.788,3.383-2.589,5.383
					s-1.468,3.991-2.001,5.973c-0.534,1.982-0.801,3.67-0.801,5.062c0,2.245,0.365,3.882,1.094,4.913
					c0.729,1.031,1.663,1.545,2.802,1.545c1.529,0,3.354-0.848,5.471-2.543c2.117-1.695,4.208-3.836,6.271-6.425
					c-2.028-1.679-3.612-3.894-4.75-6.646c-1.139-2.751-1.708-5.556-1.708-8.415c0-2.409,0.418-4.658,1.254-6.748
					c0.835-2.09,2.055-3.772,3.656-5.047c1.602-1.275,3.523-1.913,5.765-1.913c3.052,0,5.105,0.801,6.159,2.402
					c1.053,1.602,1.58,3.612,1.58,6.032c0,2.847-0.709,5.996-2.127,9.447c-1.417,3.452-3.217,6.778-5.398,9.981
					c1.316,0.712,2.704,1.086,4.164,1.121c1.174,0,2.49-0.241,3.95-0.723c1.458-0.482,2.899-1.305,4.323-2.465
					c1.423-1.161,2.562-2.742,3.416-4.744l1.334,1.126c-1.459,3.426-3.515,5.853-6.165,7.28c-2.651,1.428-5.187,2.141-7.606,2.141
					c-0.96,0-1.877-0.088-2.749-0.267c-0.873-0.178-1.7-0.462-2.482-0.854c-2.491,3.274-5.213,6.014-8.167,8.22
					c-2.954,2.206-5.818,3.31-8.593,3.31c-3.132,0-5.347-0.968-6.645-2.905C51.654,103.544,51.005,101.19,51.005,98.419z
					 M71.981,80.409c0,2.108,0.302,4.242,0.908,6.404c0.604,2.162,1.529,3.976,2.775,5.44c1.814-2.715,3.327-5.547,4.537-8.494
					c1.209-2.947,1.815-5.744,1.815-8.388c0-2.107-0.312-3.661-0.934-4.662c-0.623-1-1.397-1.501-2.322-1.501
					c-1.459,0-2.954,1.063-4.483,3.189C72.746,74.523,71.981,77.193,71.981,80.409z"/>
				<path fill="#9D98CB" d="M88.101,105.569c0-0.423,0.389-1.704,1.168-3.84c0.779-2.137,1.668-4.708,2.667-7.713
					c0.998-3.006,1.88-6.065,2.648-9.178c0.766-3.112,1.15-5.87,1.15-8.275c0.427-0.507,1.112-1.024,2.055-1.55
					c0.942-0.525,1.93-0.789,2.962-0.789c1.032,0,1.779,0.261,2.242,0.782c0.462,0.522,0.694,1.233,0.694,2.132
					c0,0.953-0.276,2.56-0.828,4.818c-0.552,2.258-1.219,4.765-2.001,7.517c1.45-2.364,3.096-4.774,4.937-7.227
					c1.839-2.454,3.777-4.702,5.812-6.745c2.035-2.042,4.087-3.708,6.157-4.997c2.07-1.29,4.078-1.935,6.024-1.935
					c2.168,0,3.667,0.842,4.493,2.527c0.826,1.685,1.239,3.699,1.239,6.042c0,1.802-0.198,3.701-0.594,5.698
					c-0.396,1.997-0.844,3.842-1.343,5.539c-0.5,1.696-0.956,3.038-1.368,4.027c1.528-2.753,3.227-5.41,5.093-7.969
					c1.867-2.559,3.885-4.65,6.054-6.275c2.168-1.624,4.498-2.436,6.987-2.436c2.392,0,4.05,0.683,4.974,2.049
					c0.924,1.366,1.387,2.977,1.387,4.833c0,1.782-0.352,3.83-1.054,6.143s-1.388,4.575-2.055,6.784
					c-0.667,2.209-1.001,4.037-1.001,5.482c0,0.908,0.243,1.724,0.73,2.447c0.487,0.723,1.342,1.084,2.568,1.084
					c2.028,0,3.94-0.932,5.738-2.795c1.796-1.864,3.46-4.118,4.991-6.764c1.529-2.645,2.846-5.21,3.95-7.695l1.281,1.545
					c-1.174,3.038-2.668,6.058-4.483,9.06c-1.814,3.002-3.941,5.475-6.378,7.418c-2.438,1.942-5.128,2.914-8.071,2.914
					c-2.601,0-4.488-0.771-5.663-2.314s-1.76-3.383-1.76-5.522c0-1.892,0.278-3.692,0.837-5.4c0.559-1.708,1.101-3.369,1.628-4.982
					c0.527-1.613,0.791-3.184,0.791-4.71c0-1.604-0.32-2.73-0.961-3.376s-1.37-0.969-2.188-0.969c-1.794,0-3.754,1.419-5.883,4.257
					s-4.88,6.845-8.256,12.023c-1.161,1.738-2.137,3.495-2.928,5.268c-0.792,1.774-1.561,3.362-2.308,4.766
					c-0.569,0-1.29-0.069-2.162-0.205c-0.873-0.138-1.655-0.369-2.349-0.694s-1.041-0.728-1.041-1.207
					c0-0.495,0.347-1.707,1.041-3.635s1.495-4.177,2.402-6.75c0.908-2.572,1.708-5.188,2.402-7.849
					c0.694-2.66,1.041-4.93,1.041-6.81c0-1.218-0.205-2.203-0.614-2.952c-0.41-0.749-1.113-1.123-2.108-1.123
					c-1.595,0-3.517,0.961-5.767,2.885c-2.25,1.923-4.57,4.438-6.961,7.542c-2.392,3.105-4.66,6.519-6.803,10.242
					c-2.144,3.723-3.871,7.419-5.182,11.088c-0.652,0-1.468-0.104-2.445-0.311c-0.978-0.208-1.82-0.484-2.527-0.829
					C88.454,106.312,88.101,105.95,88.101,105.569z"/>
				<path fill="#9D98CB" d="M159.729,100.902c0-2.632,0.58-5.451,1.737-8.457c1.158-3.006,2.761-5.986,4.811-8.938
					c2.049-2.952,4.365-5.656,6.949-8.11s5.318-4.402,8.206-5.843c2.886-1.44,5.755-2.161,8.606-2.161
					c2.803,0,5.133,0.743,6.99,2.229c1.857,1.486,2.786,3.449,2.786,5.89c0,1.805-0.479,3.034-1.437,3.688
					c-0.958,0.654-2.22,0.981-3.787,0.981c0.14-0.57,0.263-1.204,0.368-1.901c0.105-0.695,0.158-1.329,0.158-1.9
					c0-1.677-0.398-3.123-1.192-4.337c-0.794-1.213-2.162-1.82-4.103-1.82c-2.032,0-4.109,0.714-6.23,2.142
					c-2.122,1.428-4.171,3.329-6.149,5.703c-1.979,2.374-3.735,4.944-5.268,7.71c-1.533,2.766-2.736,5.506-3.609,8.218
					c-0.874,2.713-1.311,5.123-1.311,7.228c0,2.996,0.979,4.494,2.936,4.494c1.674,0,3.5-0.793,5.478-2.377
					c1.979-1.584,4.009-3.611,6.094-6.078c2.084-2.467,4.07-5.024,5.959-7.671c1.888-2.647,3.563-5.087,5.025-7.321
					c0.279-0.428,0.454-0.642,0.524-0.642c0.418,0.071,0.978,0.214,1.677,0.429c0.699,0.214,1.292,0.508,1.782,0.883
					c0.489,0.375,0.734,0.848,0.734,1.419c0,0.643-0.322,1.535-0.966,2.678c-0.644,1.143-1.359,2.445-2.148,3.908
					c-0.789,1.463-1.5,2.945-2.131,4.444c-0.631,1.5-0.946,2.909-0.946,4.229c0,1.106,0.28,2.187,0.842,3.239
					c0.561,1.053,1.491,1.58,2.791,1.58c1.957,0,4.545-1.445,7.766-4.337c3.22-2.892,6.467-7.228,9.741-13.011l1.067,1.124
					c-1.53,3.959-3.496,7.429-5.898,10.408s-4.964,5.307-7.686,6.983c-2.722,1.676-5.387,2.515-7.992,2.515
					c-2.72,0-4.724-0.802-6.012-2.405c-1.288-1.604-1.932-3.35-1.932-5.24c0-0.428,0.044-0.918,0.133-1.472
					c0.088-0.554,0.168-1.116,0.24-1.687c-3.131,4.243-5.996,7.415-8.593,9.518c-2.598,2.103-5.249,3.154-7.953,3.154
					c-2.242,0-4.146-0.748-5.711-2.244S159.729,103.966,159.729,100.902z"/>
				<path fill="#9D98CB" d="M206.012,104.113c0-0.355,0.383-1.484,1.148-3.388c0.765-1.902,1.601-4.264,2.507-7.086
					c0.908-2.822,1.822-5.669,2.746-8.541s1.385-5.604,1.385-8.197c0.427-0.461,1.112-0.931,2.055-1.409
					c0.942-0.478,1.93-0.717,2.962-0.717c1.957,0,2.936,1.158,2.936,3.475c0,1.443-0.345,3.422-1.034,5.936
					c-0.69,2.514-1.419,5.198-2.186,8.052c1.935-3,4.108-5.975,6.519-8.922c2.41-2.947,4.988-5.413,7.734-7.396
					c2.744-1.983,5.49-2.975,8.234-2.975c2.809,0,4.836,0.98,6.084,2.939c1.246,1.959,1.869,4.114,1.869,6.465
					c0,2.285-0.355,4.417-1.068,6.393c-0.713,1.978-1.441,3.882-2.188,5.714c-0.748,1.832-1.121,3.673-1.121,5.522
					c0,1.56,0.305,2.657,0.912,3.292c0.607,0.635,1.381,0.952,2.318,0.952c1.816,0,3.631-0.879,5.445-2.639s3.576-3.972,5.283-6.638
					c1.709-2.666,3.221-5.378,4.537-8.135l1.229,1.469c-1.531,3.617-3.248,6.836-5.15,9.657c-1.904,2.821-3.977,5.045-6.219,6.673
					c-2.242,1.627-4.732,2.441-7.469,2.441c-2.557,0-4.471-0.667-5.75-1.998c-1.277-1.332-1.914-3.024-1.914-5.076
					c0-1.56,0.275-3.191,0.826-4.896s1.086-3.474,1.602-5.306c0.516-1.831,0.773-3.6,0.773-5.306c0-2.067-0.426-3.491-1.281-4.271
					c-0.854-0.78-1.885-1.17-3.096-1.17c-2.24,0-4.535,0.942-6.883,2.825c-2.348,1.883-4.616,4.292-6.804,7.226
					c-2.188,2.934-4.225,5.958-6.111,9.072c-1.885,3.115-3.558,5.904-5.015,8.366c-1.174,0-2.285-0.206-3.335-0.614
					C207.445,105.493,206.617,104.896,206.012,104.113z"/>
				<path fill="#9D98CB" d="M259.326,98.938c0-2.419,0.585-5.115,1.753-8.086c1.17-2.971,2.729-5.933,4.677-8.887
					c1.948-2.953,4.197-5.684,6.748-8.193c2.55-2.509,5.197-4.51,7.942-6.005c2.745-1.494,5.464-2.242,8.156-2.242
					c1.488,0,2.638,0.267,3.451,0.801s1.22,1.388,1.22,2.562c0,0.285-0.018,0.543-0.052,0.774c-0.035,0.232-0.086,0.49-0.155,0.774
					c-0.347-0.532-0.856-0.923-1.531-1.173c-0.675-0.25-1.514-0.375-2.518-0.375c-2.35,0-4.629,0.71-6.837,2.127
					c-2.207,1.418-4.245,3.27-6.115,5.557c-1.87,2.287-3.489,4.742-4.86,7.366c-1.371,2.624-2.438,5.149-3.204,7.578
					c-0.766,2.429-1.148,4.475-1.148,6.142c0,1.601,0.365,2.874,1.097,3.816c0.731,0.943,1.668,1.414,2.81,1.414
					c1.944,0,4.315-1.236,7.108-3.709c2.794-2.473,5.641-5.969,8.541-10.488c2.9-4.519,5.518-9.803,7.853-15.853
					c1.582-4.234,3.229-8.54,4.937-12.917c1.708-4.377,3.434-8.584,5.178-12.624c1.743-4.038,3.434-7.641,5.07-10.808
					c1.637-3.167,3.202-5.685,4.697-7.553c1.494-1.868,2.829-2.802,4.003-2.802c0.568,0,1.076,0.24,1.521,0.721
					c0.444,0.48,0.667,1.094,0.667,1.841c0,1.174-0.597,3.159-1.788,5.952c-1.192,2.793-2.758,6.138-4.697,10.034
					s-3.968,8.14-6.085,12.73s-4.136,9.252-6.058,13.984c-1.922,4.733-3.487,9.305-4.697,13.717
					c-1.21,4.413-1.814,8.452-1.814,12.116c0,2.028,0.106,3.55,0.32,4.564s0.942,1.521,2.188,1.521c1.529,0,3.317-0.649,5.364-1.948
					c2.046-1.298,4.091-3.157,6.138-5.578c2.046-2.419,3.834-5.302,5.364-8.646l1.281,1.014c-1.388,3.702-3.282,7.028-5.685,9.981
					c-2.402,2.954-4.964,5.284-7.686,6.992c-2.723,1.708-5.324,2.562-7.805,2.562c-2.631,0-4.455-0.89-5.476-2.669
					c-1.021-1.779-1.531-3.611-1.531-5.498c0-1.245,0.172-2.891,0.519-4.937c0.346-2.046,0.848-4.297,1.505-6.752
					c-2.349,3.878-4.829,7.357-7.444,10.435c-2.614,3.078-5.185,5.489-7.71,7.232c-2.525,1.743-4.909,2.615-7.15,2.615
					c-1.222,0-2.461-0.303-3.717-0.907c-1.256-0.605-2.295-1.602-3.114-2.989S259.326,101.073,259.326,98.938z"/>
			</g>
		</g>
		<g>
			<path fill="#D5A5CC" d="M86.468,55.447c0.384,1.707,0.834,3.388,1.328,5.052h14.412c-0.47-2.184-0.803-4.396-0.961-6.642
				c-0.236-3.349-0.113-6.689,0.558-9.991c0.475-2.339,1.151-4.619,2.187-6.772c1.531-3.183,3.494-6.082,5.892-8.679
				c1.107-1.199,2.328-2.265,3.693-3.165c1.498-0.987,3.068-1.841,4.708-2.565c4.57-2.016,9.35-3.148,14.338-3.431
				c3.434-0.195,6.822,0.078,10.162,0.888c5.055,1.225,9.481,3.606,13.183,7.285c2.516,2.5,4.474,5.396,6.003,8.587
				c2.096,4.374,3.288,9.01,3.972,13.792c0.076,0.531,0.146,1.062,0.237,1.727c0.571-0.566,1.025-1.042,1.506-1.488
				c3.862-3.576,8.145-6.545,12.877-8.852c3.882-1.892,7.935-3.211,12.262-3.587c2.169-0.188,4.329-0.119,6.473,0.263
				c3.558,0.634,6.789,2.048,9.73,4.139c2.574,1.83,4.77,4.05,6.728,6.517c1.268,1.598,2.277,3.346,3.033,5.24
				c0.877,2.199,1.395,4.446,1.626,6.732h18.759c-0.017-0.995-0.072-1.991-0.182-2.987c-0.609-5.527-2.452-10.626-5.353-15.346
				c-2.195-3.571-4.833-6.79-7.927-9.624c-3.141-2.877-6.662-5.15-10.664-6.645c-2.549-0.952-5.18-1.542-7.892-1.787
				c-3.81-0.344-7.568-0.02-11.293,0.807c-3.646,0.809-7.139,2.065-10.516,3.647c-4.754,2.228-9.187,4.978-13.277,8.271
				c-0.897,0.723-1.732,1.523-2.596,2.287c-0.083,0.073-0.173,0.14-0.311,0.251c-0.054-0.186-0.109-0.312-0.125-0.442
				c-0.267-2.247-0.654-4.473-1.154-6.679c-1.052-4.64-2.609-9.094-4.941-13.256c-2.497-4.458-5.727-8.279-9.851-11.319
				c-3.686-2.717-7.775-4.58-12.197-5.726c-2.283-0.591-4.602-0.969-6.952-1.173c-2.352-0.204-4.707-0.236-7.057-0.082
				c-7.493,0.492-14.608,2.386-21.27,5.895c-2.785,1.467-5.358,3.242-7.657,5.397c-1.985,1.86-3.693,3.96-5.239,6.193
				c-2.221,3.209-4.093,6.602-5.393,10.294c-0.942,2.675-1.577,5.421-1.944,8.233c-0.342,2.624-0.462,5.257-0.358,7.898
				C85.17,48.264,85.665,51.877,86.468,55.447z"/>
			<path fill="#D5A5CC" d="M177.323,113.312c-0.205,0.195-0.415,0.384-0.617,0.582c-3.853,3.754-7.166,7.931-9.835,12.606
				c-1.427,2.5-2.658,5.094-3.531,7.845c-0.493,1.555-0.871,3.133-0.706,4.788c0.003,0.034-0.039,0.073-0.077,0.139
				c-0.258-0.075-0.414-0.294-0.595-0.465c-3.582-3.377-7.184-6.733-10.735-10.143c-5.198-4.992-10.277-10.102-15.213-15.352
				h-13.492c6.807,7.048,13.945,13.749,21.322,20.199c8.372,7.32,17.008,14.317,25.821,21.096c0.179,0.137,0.329,0.337,0.62,0.349
				c-0.065-0.483-0.129-0.947-0.19-1.411c-0.121-0.916-0.098-1.834-0.028-2.751c0.171-2.216,0.618-4.382,1.221-6.516
				c0.871-3.086,1.906-6.113,3.284-9.015c2.092-4.405,4.903-8.303,8.277-11.809c2.489-2.585,5.193-4.926,8.023-7.126
				c1.334-1.037,2.696-2.035,4.068-3.017H177.323z"/>
		</g>
	</g>
</g>
<g id="Ebene_2" display="none">
	<g display="inline">
		<path fill="#E71D73" d="M173.53,210.641c-8.813-6.779-17.45-13.775-25.821-21.096c-8.179-7.151-16.087-14.586-23.548-22.49
			c-5.437-5.76-10.608-11.747-15.351-18.096c-3.74-5.007-7.19-10.203-10.16-15.708c-3.719-6.894-6.595-14.113-8.317-21.771
			c-0.803-3.57-1.298-7.183-1.442-10.84c-0.104-2.641,0.016-5.274,0.358-7.898c0.367-2.812,1.002-5.558,1.944-8.233
			c1.3-3.692,3.172-7.086,5.393-10.294c1.546-2.233,3.254-4.333,5.239-6.193c2.3-2.155,4.873-3.93,7.657-5.397
			c6.661-3.509,13.776-5.403,21.27-5.895c2.35-0.154,4.705-0.122,7.056,0.082c2.351,0.204,4.67,0.581,6.952,1.173
			c4.422,1.146,8.511,3.009,12.197,5.726c4.124,3.04,7.355,6.861,9.851,11.319c2.331,4.163,3.888,8.616,4.941,13.256
			c0.5,2.206,0.887,4.432,1.154,6.679c0.015,0.13,0.071,0.256,0.125,0.442c0.139-0.111,0.228-0.177,0.311-0.251
			c0.864-0.764,1.699-1.564,2.596-2.287c4.09-3.293,8.523-6.043,13.277-8.271c3.377-1.583,6.87-2.838,10.516-3.647
			c3.724-0.827,7.483-1.151,11.293-0.807c2.712,0.245,5.343,0.835,7.892,1.787c4.002,1.495,7.523,3.768,10.664,6.645
			c3.094,2.834,5.732,6.053,7.927,9.624c2.901,4.72,4.744,9.818,5.353,15.346c0.256,2.328,0.268,4.652-0.005,6.98
			c-0.366,3.128-1.126,6.155-2.251,9.094c-1.537,4.014-3.704,7.668-6.32,11.064c-2.582,3.353-5.53,6.361-8.688,9.168
			c-3.119,2.773-6.418,5.318-9.8,7.76c-3.571,2.578-7.227,5.031-10.874,7.499c-3.452,2.336-6.89,4.693-10.183,7.252
			c-2.83,2.2-5.534,4.541-8.023,7.126c-3.375,3.505-6.186,7.404-8.278,11.809c-1.378,2.901-2.413,5.929-3.284,9.015
			c-0.603,2.134-1.05,4.3-1.221,6.516c-0.071,0.917-0.094,1.835,0.028,2.751c0.061,0.464,0.125,0.928,0.19,1.411
			C173.859,210.978,173.709,210.778,173.53,210.641z M169.809,105.84c-0.684-4.782-1.876-9.418-3.972-13.792
			c-1.529-3.191-3.487-6.087-6.003-8.587c-3.703-3.679-8.128-6.061-13.183-7.285c-3.34-0.809-6.728-1.082-10.162-0.888
			c-4.988,0.283-9.768,1.414-14.338,3.431c-1.64,0.724-3.209,1.578-4.708,2.565c-1.365,0.899-2.586,1.966-3.693,3.165
			c-2.398,2.598-4.361,5.496-5.892,8.679c-1.036,2.154-1.713,4.434-2.187,6.772c-0.67,3.302-0.793,6.642-0.558,9.991
			c0.302,4.298,1.231,8.475,2.575,12.563c1.58,4.807,3.703,9.367,6.224,13.748c2.802,4.868,6.001,9.468,9.412,13.923
			c4.171,5.447,8.641,10.642,13.271,15.701c5.951,6.501,12.141,12.769,18.496,18.873c3.551,3.41,7.152,6.766,10.735,10.143
			c0.181,0.171,0.337,0.39,0.595,0.465c0.038-0.066,0.08-0.104,0.077-0.139c-0.164-1.655,0.213-3.234,0.706-4.788
			c0.872-2.751,2.104-5.345,3.531-7.845c2.669-4.675,5.982-8.852,9.835-12.606c2.72-2.65,5.61-5.104,8.599-7.44
			c3.711-2.9,7.452-5.763,11.177-8.646c2.701-2.09,5.368-4.224,7.929-6.485c2.51-2.216,4.907-4.546,7.091-7.089
			c2.373-2.763,4.452-5.724,6.065-9c1.097-2.226,1.971-4.535,2.519-6.957c0.166-0.733,0.277-1.483,0.345-2.231
			c0.388-4.216-0.064-8.324-1.642-12.279c-0.756-1.894-1.765-3.642-3.033-5.24c-1.958-2.467-4.154-4.687-6.728-6.517
			c-2.941-2.091-6.172-3.505-9.73-4.139c-2.144-0.382-4.305-0.452-6.473-0.263c-4.326,0.376-8.38,1.695-12.262,3.587
			c-4.733,2.306-9.015,5.276-12.877,8.852c-0.481,0.446-0.935,0.922-1.506,1.488C169.954,106.902,169.885,106.37,169.809,105.84z"/>
	</g>
</g>
</svg>
